{
  "accessors": [
    {
      "bufferView": 2,
      "componentType": 5126,
      "count": 3152,
      "max": [
        116.18501281738281,
        1644.085693359375,
        124.99637603759766
      ],
      "min": [
        -120.54403686523438,
        1009.1677856445313,
        77.04886627197266
      ],
      "type": "VEC3"
    },
    {
      "bufferView": 2,
      "byteOffset": 37824,
      "componentType": 5126,
      "count": 3152,
      "max": [
        1.0,
        0.9995481967926025,
        0.9490252733230591
      ],
      "min": [
        -0.9591658115386963,
        -0.9963930249214172,
        -0.9490104913711548
      ],
      "type": "VEC3"
    },
    {
      "bufferView": 1,
      "componentType": 5126,
      "count": 3152,
      "max": [
        120.0631332397461,
        4.0426554679870605
      ],
      "min": [
        -0.752284824848175,
        -3.0157811641693115
      ],
      "type": "VEC2"
    },
    {
      "bufferView": 1,
      "byteOffset": 25216,
      "componentType": 5126,
      "count": 3152,
      "max": [
        120.0631332397461,
        4.0426554679870605
      ],
      "min": [
        -0.752284824848175,
        -3.0157811641693115
      ],
      "type": "VEC2"
    },
    {
      "bufferView": 0,
      "componentType": 5125,
      "count": 16320,
      "type": "SCALAR"
    },
    {
      "bufferView": 2,
      "byteOffset": 75648,
      "componentType": 5126,
      "count": 20644,
      "max": [
        528.98828125,
        1947.8353271484375,
        123.68171691894531
      ],
      "min": [
        -527.579345703125,
        998.5844116210938,
        -128.75283813476563
      ],
      "type": "VEC3"
    },
    {
      "bufferView": 2,
      "byteOffset": 323376,
      "componentType": 5126,
      "count": 20644,
      "max": [
        1.0,
        0.9991645812988281,
        0.9999822974205017
      ],
      "min": [
        -0.9999927878379822,
        -0.9998159408569336,
        -0.9999808073043823
      ],
      "type": "VEC3"
    },
    {
      "bufferView": 1,
      "byteOffset": 50432,
      "componentType": 5126,
      "count": 20644,
      "max": [
        4.116642951965332,
        3.7364213466644287
      ],
      "min": [
        -1.2702752351760864,
        -2.7364206314086914
      ],
      "type": "VEC2"
    },
    {
      "bufferView": 1,
      "byteOffset": 215584,
      "componentType": 5126,
      "count": 20644,
      "max": [
        4.116642951965332,
        3.7364213466644287
      ],
      "min": [
        -1.2702752351760864,
        -2.7364206314086914
      ],
      "type": "VEC2"
    },
    {
      "bufferView": 0,
      "byteOffset": 65280,
      "componentType": 5125,
      "count": 110304,
      "type": "SCALAR"
    },
    {
      "bufferView": 2,
      "byteOffset": 571104,
      "componentType": 5126,
      "count": 4661,
      "max": [
        556.908447265625,
        1200.96826171875,
        129.5877227783203
      ],
      "min": [
        -555.614990234375,
        949.4085083007813,
        -118.85858917236328
      ],
      "type": "VEC3"
    },
    {
      "bufferView": 2,
      "byteOffset": 627036,
      "componentType": 5126,
      "count": 4661,
      "max": [
        1.0,
        0.9996725916862488,
        0.9998754858970642
      ],
      "min": [
        -0.9961152076721191,
        -0.9996337890625,
        -0.9998511075973511
      ],
      "type": "VEC3"
    },
    {
      "bufferView": 1,
      "byteOffset": 380736,
      "componentType": 5126,
      "count": 4661,
      "max": [
        764.0199584960938,
        202.43411254882813
      ],
      "min": [
        -374.199951171875,
        -117.50173950195313
      ],
      "type": "VEC2"
    },
    {
      "bufferView": 0,
      "byteOffset": 506496,
      "componentType": 5125,
      "count": 22842,
      "type": "SCALAR"
    }
  ],
  "asset": {
    "extras": {
      "author": "Pieter Ferreira (https://sketchfab.com/Badboy17Aiden)",
      "license": "CC-BY-4.0 (http://creativecommons.org/licenses/by/4.0/)",
      "source": "https://sketchfab.com/3d-models/hoodie-6dca9cd855a8441881f0b324236cf325",
      "title": "Hoodie"
    },
    "generator": "Sketchfab-15.49.0",
    "version": "2.0"
  },
  "bufferViews": [
    {
      "buffer": 0,
      "byteLength": 597864,
      "name": "floatBufferViews",
      "target": 34963
    },
    {
      "buffer": 0,
      "byteLength": 418024,
      "byteOffset": 597864,
      "byteStride": 8,
      "name": "floatBufferViews",
      "target": 34962
    },
    {
      "buffer": 0,
      "byteLength": 682968,
      "byteOffset": 1015888,
      "byteStride": 12,
      "name": "floatBufferViews",
      "target": 34962
    }
  ],
  "buffers": [
    {
      "byteLength": 1698856,
      "uri": "scene.bin"
    }
  ],
  "extensionsUsed": [
    "KHR_materials_specular"
  ],
  "images": [
    {
      "uri": "textures/Material3758_baseColor.jpeg"
    },
    {
      "uri": "textures/Material3748_baseColor.jpeg"
    },
    {
      "uri": "textures/Material3754_baseColor.jpeg"
    }
  ],
  "materials": [
    {
      "doubleSided": true,
      "extensions": {
        "KHR_materials_specular": {
          "specularColorFactor": [
            1.0,
            1.0,
            1.0
          ],
          "specularFactor": 1.0
        }
      },
      "name": "Material3758",
      "pbrMetallicRoughness": {
        "baseColorTexture": {
          "index": 0
        },
        "roughnessFactor": 0.5
      }
    },
    {
      "doubleSided": true,
      "extensions": {
        "KHR_materials_specular": {
          "specularColorFactor": [
            1.0,
            1.0,
            1.0
          ],
          "specularFactor": 1.0
        }
      },
      "name": "Material3748",
      "pbrMetallicRoughness": {
        "baseColorFactor": [
          0.7517149390243902,
          0.7517149390243902,
          0.7517149390243902,
          1.0
        ],
        "baseColorTexture": {
          "index": 1
        }
      }
    },
    {
      "doubleSided": true,
      "extensions": {
        "KHR_materials_specular": {
          "specularColorFactor": [
            1.0,
            1.0,
            1.0
          ],
          "specularFactor": 1.0
        }
      },
      "name": "Material3754",
      "pbrMetallicRoughness": {
        "baseColorFactor": [
          0.7517149390243902,
          0.7517149390243902,
          0.7517149390243902,
          1.0
        ],
        "baseColorTexture": {
          "index": 2
        }
      }
    }
  ],
  "meshes": [
    {
      "name": "Hoodie_Material3758_0",
      "primitives": [
        {
          "attributes": {
            "NORMAL": 1,
            "POSITION": 0,
            "TEXCOORD_0": 2,
            "TEXCOORD_1": 3
          },
          "indices": 4,
          "material": 0,
          "mode": 4
        }
      ]
    },
    {
      "name": "Hoodie_Material3748_0",
      "primitives": [
        {
          "attributes": {
            "NORMAL": 6,
            "POSITION": 5,
            "TEXCOORD_0": 7,
            "TEXCOORD_1": 8
          },
          "indices": 9,
          "material": 1,
          "mode": 4
        }
      ]
    },
    {
      "name": "Hoodie_Material3754_0",
      "primitives": [
        {
          "attributes": {
            "NORMAL": 11,
            "POSITION": 10,
            "TEXCOORD_0": 12
          },
          "indices": 13,
          "material": 2,
          "mode": 4
        }
      ]
    }
  ],
  "nodes": [
    {
      "children": [
        1
      ],
      "matrix": [
        0.00185022980440408,
        0.0,
        0.0,
        0.0,
        0.0,
        4.108335459394219e-19,
        -0.00185022980440408,
        0.0,
        0.0,
        0.00185022980440408,
        4.108335459394219e-19,
        0.0,
        0.0,
        0.0,
        0.0,
        1.0
      ],
      "name": "Sketchfab_model"
    },
    {
      "children": [
        2
      ],
      "matrix": [
        1.0,
        0.0,
        0.0,
        0.0,
        0.0,
        0.0,
        1.0,
        0.0,
        0.0,
        -1.0,
        0.0,
        0.0,
        0.0,
        0.0,
        0.0,
        1.0
      ],
      "name": "Hoodie.fbx"
    },
    {
      "children": [
        3
      ],
      "name": "RootNode"
    },
    {
      "children": [
        4,
        5,
        6
      ],
      "name": "Hoodie"
    },
    {
      "mesh": 0,
      "name": "Hoodie_Material3758_0"
    },
    {
      "mesh": 1,
      "name": "Hoodie_Material3748_0"
    },
    {
      "mesh": 2,
      "name": "Hoodie_Material3754_0"
    }
  ],
  "samplers": [
    {
      "magFilter": 9729,
      "minFilter": 9987,
      "wrapS": 10497,
      "wrapT": 10497
    }
  ],
  "scene": 0,
  "scenes": [
    {
      "name": "Sketchfab_Scene",
      "nodes": [
        0
      ]
    }
  ],
  "textures": [
    {
      "sampler": 0,
      "source": 0
    },
    {
      "sampler": 0,
      "source": 1
    },
    {
      "sampler": 0,
      "source": 2
    }
  ]
}
