<svg width="80" height="80" viewBox="0 0 80 80" fill="none" xmlns="http://www.w3.org/2000/svg">
<g clip-path="url(#clip0_4410_67954)">
<path d="M75 53.525L71.475 50L62.5 58.975L53.525 50L50 53.525L58.975 62.5L50 71.475L53.525 75L62.5 66.025L71.475 75L75 71.475L66.025 62.5L75 53.525Z" fill="#C73E40"/>
<path d="M35 65C27.0435 65 19.4129 61.8393 13.7868 56.2132C8.1607 50.5871 5 42.9565 5 35C5 27.0435 8.1607 19.4129 13.7868 13.7868C19.4129 8.16071 27.0435 5 35 5V65Z" fill="#DF1C41" fill-opacity="0.3"/>
<path d="M44.5645 11.9105C47.5949 13.1692 50.3488 15.0106 52.67 17.3302L56.2032 13.7965C53.4183 11.0131 50.1142 8.80332 46.4782 7.29248L44.5645 11.9105Z" fill="#DF1C41" fill-opacity="0.3"/>
<path d="M64.9996 35C65.0012 31.0605 64.2222 27.1597 62.7078 23.5229L58.0898 25.4357C59.3518 28.4664 60.0008 31.717 59.9996 35H64.9996Z" fill="#DF1C41" fill-opacity="0.3"/>
</g>
<defs>
<clipPath id="clip0_4410_67954">
<rect width="80" height="80" fill="white"/>
</clipPath>
</defs>
</svg>
