<svg width="76" height="76" viewBox="0 0 76 76" fill="none" xmlns="http://www.w3.org/2000/svg">
<path fill-rule="evenodd" clip-rule="evenodd" d="M38.0003 0.856934C17.4868 0.856934 0.857422 17.4864 0.857422 37.9998C0.857422 58.5132 17.4868 75.1426 38.0003 75.1426C58.5137 75.1426 75.1431 58.5132 75.1431 37.9998C75.1431 17.4864 58.5137 0.856934 38.0003 0.856934ZM6.57171 37.9998C6.57171 20.6423 20.6428 6.57122 38.0003 6.57122C55.3577 6.57122 69.4288 20.6423 69.4288 37.9998C69.4288 55.3572 55.3577 69.4284 38.0003 69.4284C20.6428 69.4284 6.57171 55.3572 6.57171 37.9998Z" fill="#21AE15"/>
<path d="M6.57171 37.9998C6.57171 20.6423 20.6428 6.57122 38.0003 6.57122C55.3577 6.57122 69.4288 20.6423 69.4288 37.9998C69.4288 55.3572 55.3577 69.4284 38.0003 69.4284C20.6428 69.4284 6.57171 55.3572 6.57171 37.9998Z" fill="#21AE15"/>
</svg>
