<svg width="86" height="26" viewBox="0 0 86 26" fill="none" xmlns="http://www.w3.org/2000/svg">
<g clip-path="url(#clip0_2845_8189)">
<path d="M82.5156 16.3834C84.2042 16.3834 85.5731 15.0145 85.5731 13.3259C85.5731 11.6372 84.2042 10.2683 82.5156 10.2683C80.8269 10.2683 79.458 11.6372 79.458 13.3259C79.458 15.0145 80.8269 16.3834 82.5156 16.3834Z" fill="#FCB714"/>
<path d="M82.5156 25.5398C84.2042 25.5398 85.5731 24.1709 85.5731 22.4822C85.5731 20.7936 84.2042 19.4247 82.5156 19.4247C80.8269 19.4247 79.458 20.7936 79.458 22.4822C79.458 24.1709 80.8269 25.5398 82.5156 25.5398Z" fill="#FCB714"/>
<path d="M70.5782 12.4821V10.318H76.1817V25.544H70.6169V23.148L69.9796 23.9599C68.4423 25.6116 66.5348 26.1862 64.3031 25.9254C60.7954 25.5154 58.3291 22.3724 58.0184 18.9744H63.6605C64.4755 22.146 69.0533 22.5243 70.2872 19.3987C71.0651 17.4286 70.1253 14.9291 67.9744 14.4093C65.8566 13.8977 63.8344 15.2398 63.5445 17.39H57.9797C58.1277 13.9893 60.3258 10.735 63.7691 10.0209C66.3443 9.48681 69.0939 10.2241 70.5778 12.4821H70.5782Z" fill="#0375FE"/>
<path d="M12.6116 12.4822V10.3181H18.215V25.544H12.6502V23.1481L12.0516 23.9213C9.45819 26.8653 4.74241 26.555 2.15748 23.7668C-1.09484 20.2586 -0.648109 13.8514 3.34734 11.0821C5.62659 9.50232 8.94345 9.39914 11.2324 11.0207C11.7869 11.4133 12.2305 11.9234 12.6112 12.4822H12.6116ZM8.77766 14.3101C4.24351 14.6988 4.57971 21.7855 9.30671 21.5633C13.9066 21.3472 13.5727 13.8985 8.77766 14.3101Z" fill="#0375FE"/>
<path d="M56.2798 0V17.39H50.599C50.3026 15.2298 48.3314 13.9051 46.2005 14.402C43.7215 14.9798 42.8593 18.166 44.2687 20.1461C45.9451 22.5015 49.813 21.7793 50.4835 18.9744H56.2802V25.544H50.6767V23.1094L50.194 23.8054C47.9685 26.3451 43.9506 26.6995 41.2351 24.7251C36.7717 21.4801 37.0232 13.4189 41.9168 10.6976C44.3429 9.34848 48.1764 9.60354 50.1168 11.7085C50.3301 11.94 50.4584 12.1923 50.6381 12.4431V0H56.2802H56.2798Z" fill="#0375FE"/>
<path d="M36.5711 19.1289H25.5574C25.6517 20.7331 26.9896 21.6675 28.4817 21.8661C29.9691 22.0644 31.8036 21.7479 33.09 20.9615L33.7879 20.4819C33.9561 20.9278 35.9605 23.7732 35.9088 23.9711C35.8836 24.0665 35.4021 24.4364 35.2912 24.516C32.7063 26.3717 27.3196 26.4045 24.4997 25.0752C18.6698 22.3264 18.7641 13.1309 24.708 10.5707C27.3811 9.41951 31.4202 9.62433 33.8003 11.3687C36.2396 13.1564 36.8579 16.2604 36.5707 19.1289H36.5711ZM31.3155 16.192C31.2969 14.9488 30.4402 13.8899 29.1985 13.6909C27.4425 13.4092 25.8013 14.3212 25.6734 16.192H31.3155Z" fill="#0375FE"/>
</g>
<defs>
<clipPath id="clip0_2845_8189">
<rect width="85.5732" height="26" fill="white"/>
</clipPath>
</defs>
</svg>
